<svg width="307" height="82" viewBox="0 0 307 82" fill="none" xmlns="http://www.w3.org/2000/svg">
<g clip-path="url(#clip0_3788_36841)">
<path d="M72.7803 61.8729C73.2906 61.0533 73.5745 60.0992 73.5745 59.1043V22.6589C73.5745 20.7384 72.5252 18.9687 70.83 18.039L39.2252 0.656318C38.4639 0.236328 37.6287 0.0283717 36.7852 0.00390625V41.1874L72.7803 61.877V61.8729Z" fill="#60A1FF"/>
<path d="M36.7846 41.1874L0.320312 61.824C0.760583 63.0228 1.62878 64.0462 2.79735 64.6701L33.9784 81.3637C35.5872 82.224 37.5252 82.2077 39.1176 81.3229L70.8458 63.7119C71.6523 63.2633 72.3107 62.6232 72.7797 61.8688L36.7846 41.1792V41.1874Z" fill="#BCD8FF"/>
<path d="M36.7852 -0.000625562C35.8018 -0.0291686 34.8102 0.207331 33.9296 0.717027L2.62516 18.9846C0.995751 19.9346 0 21.6676 0 23.5392V60.0212C0 60.6451 0.111096 61.2527 0.320945 61.8235L36.7852 41.1869V-0.000625562Z" fill="#1D66CF"/>
<path d="M29.945 20.0004V35.4381C31.2534 33.8886 32.4796 32.751 33.6235 32.0333C34.6439 31.4298 35.8002 30.9568 37.088 30.6143C38.3759 30.2718 39.6103 30.1046 40.7995 30.1046C44.0707 30.1046 46.6547 30.9854 48.5556 32.7428C50.4566 34.5002 51.4071 36.8938 51.4071 39.9234V58.3092C51.4071 59.3694 51.0286 60.2297 50.2715 60.8903C49.5144 61.5509 48.5433 61.8852 47.3583 61.8852C46.1733 61.8852 45.1405 61.5549 44.3834 60.8903C43.6263 60.2297 43.2477 59.3694 43.2477 58.3092V40.9428C43.2477 39.5034 42.8568 38.3902 42.0833 37.5951C41.3056 36.8 40.2029 36.4045 38.771 36.4045C36.0306 36.4045 33.6811 37.5217 31.7184 39.7522C31.311 40.2455 30.9119 40.7919 30.521 41.3995C30.1301 42.0071 29.9367 42.4026 29.9367 42.5901V58.3092C29.9367 59.3694 29.5582 60.2297 28.8011 60.8903C28.044 61.5509 27.0729 61.8852 25.8879 61.8852C24.7029 61.8852 23.6701 61.5549 22.913 60.8903C22.1559 60.2297 21.7773 59.3694 21.7773 58.3092V20.0004C21.7773 18.981 22.1559 18.1369 22.913 17.4764C23.6701 16.8158 24.6617 16.4814 25.8879 16.4814C27.1141 16.4814 28.044 16.8117 28.8011 17.4764C29.5582 18.1369 29.9367 18.981 29.9367 20.0004H29.945Z" fill="white"/>
<path d="M292.525 62.3334H295.805L278.729 19.9756H274.939L257.863 62.3334H261.254L266.504 48.9427H287.094L292.517 62.3334H292.525ZM267.574 46.2352L276.639 23.1153L286.004 46.2352H267.574Z" fill="black"/>
<path d="M306.996 19.9756H303.832V62.3334H306.996V19.9756Z" fill="black"/>
<path d="M108.879 22.9484V37.4931C110.039 36.0333 111.129 34.9609 112.146 34.284C113.051 33.7132 114.08 33.2687 115.219 32.9466C116.363 32.6245 117.458 32.4654 118.511 32.4654C121.412 32.4654 123.708 33.2932 125.395 34.9527C127.082 36.6123 127.926 38.8672 127.926 41.7174V59.043C127.926 60.0421 127.588 60.8535 126.917 61.4774C126.247 62.1012 125.383 62.4111 124.333 62.4111C123.284 62.4111 122.367 62.0972 121.692 61.4774C121.021 60.8535 120.684 60.0421 120.684 59.043V42.6797C120.684 41.326 120.338 40.274 119.651 39.5237C118.96 38.7734 117.98 38.4024 116.713 38.4024C114.281 38.4024 112.195 39.4544 110.455 41.5584C110.093 42.0233 109.739 42.5411 109.393 43.1079C109.047 43.6788 108.875 44.0539 108.875 44.2292V59.043C108.875 60.0421 108.537 60.8535 107.867 61.4774C107.196 62.1012 106.332 62.4111 105.283 62.4111C104.233 62.4111 103.316 62.0972 102.641 61.4774C101.97 60.8535 101.633 60.0421 101.633 59.043V22.9484C101.633 21.9861 101.966 21.1909 102.641 20.5671C103.312 19.9432 104.192 19.6333 105.283 19.6333C106.373 19.6333 107.196 19.9473 107.867 20.5671C108.537 21.1909 108.875 21.9861 108.875 22.9484H108.879Z" fill="black"/>
<path d="M148.009 32.4697C150.112 32.4697 152.062 32.8367 153.86 33.5666C155.654 34.2965 157.136 35.324 158.296 36.6411C159.419 37.9255 160.316 39.5362 160.991 41.4812C161.662 43.4262 161.999 45.4119 161.999 47.4426C161.999 49.726 161.592 51.9157 160.773 54.0197C159.958 56.1237 158.86 57.8159 157.481 59.1004C156.358 60.1361 154.93 60.9475 153.21 61.5347C151.486 62.1218 149.663 62.4154 147.742 62.4154C145.565 62.4154 143.541 62.0484 141.673 61.3186C139.805 60.5887 138.29 59.5611 137.13 58.2441C136.04 56.9596 135.163 55.3286 134.492 53.351C133.822 51.3734 133.484 49.3509 133.484 47.2795C133.484 45.0327 133.9 42.8675 134.735 40.7839C135.571 38.6962 136.677 37.0121 138.056 35.7318C139.179 34.7002 140.615 33.8969 142.356 33.326C144.096 32.7552 145.985 32.4697 148.017 32.4697H148.009ZM147.627 38.1906C146.791 38.1906 145.956 38.37 145.125 38.7247C144.29 39.0836 143.582 39.5647 143.002 40.1682C142.384 40.8451 141.878 41.8441 141.479 43.1611C141.08 44.4823 140.883 45.889 140.883 47.3855C140.883 49.0981 141.117 50.6476 141.59 52.038C142.063 53.4285 142.697 54.4642 143.495 55.141C144.039 55.6059 144.701 55.981 145.483 56.2624C146.265 56.5478 147.013 56.6905 147.742 56.6905C148.577 56.6905 149.429 56.5111 150.301 56.1564C151.173 55.8016 151.898 55.3204 152.478 54.7129C153.095 54.036 153.601 53.0125 154 51.6384C154.399 50.2643 154.597 48.8126 154.597 47.2795C154.597 45.5343 154.35 43.9807 153.86 42.627C153.371 41.2732 152.692 40.2579 151.819 39.5769C150.585 38.6513 149.19 38.1865 147.631 38.1865L147.627 38.1906Z" fill="black"/>
<path d="M179.141 50.3864L173.208 48.4618C171.175 47.7849 169.608 46.7778 168.501 45.4403C167.394 44.1029 166.843 42.5616 166.843 40.8163C166.843 38.2842 167.851 36.2617 169.863 34.7448C171.875 33.228 174.533 32.4736 177.837 32.4736C179.215 32.4736 180.721 32.6449 182.355 32.9833C183.988 33.3218 185.367 33.7785 186.49 34.3452C186.996 34.6307 187.408 35.0058 187.716 35.4666C188.025 35.9314 188.177 36.4289 188.177 36.963C188.177 37.7459 187.877 38.435 187.28 39.0222C186.679 39.6094 186 39.903 185.239 39.903C185.132 39.903 184.947 39.8867 184.696 39.85C184.441 39.8133 183.77 39.5645 182.684 39.0997C181.05 38.4228 179.475 38.0844 177.948 38.0844C176.825 38.0844 175.936 38.325 175.282 38.8061C174.627 39.2873 174.302 39.956 174.302 40.8123C174.302 42.1334 175.282 43.112 177.24 43.7522L183.935 45.9989C184.659 46.2477 185.441 46.6595 186.276 47.2304C187.111 47.8012 187.745 48.3517 188.181 48.8899C188.654 49.4975 189.033 50.2437 189.325 51.1367C189.613 52.0297 189.761 52.8656 189.761 53.6485C189.761 54.4314 189.625 55.251 189.354 56.1073C189.082 56.9635 188.708 57.7097 188.239 58.354C186.169 61.0656 182.561 62.4193 177.409 62.4193C176.138 62.4193 174.677 62.3133 173.027 62.0972C171.377 61.8852 169.842 61.4733 168.427 60.8658C166.974 60.2256 166.25 59.1899 166.25 57.7627C166.25 56.9799 166.513 56.3111 167.04 55.7566C167.567 55.2061 168.209 54.9288 168.974 54.9288C169.41 54.9288 169.97 55.0879 170.661 55.41C171.64 55.8381 172.747 56.1766 173.981 56.4253C175.216 56.674 176.376 56.8004 177.467 56.8004C178.989 56.8004 180.186 56.5313 181.059 55.9972C181.931 55.463 182.363 54.7127 182.363 53.7504C182.363 52.2172 181.293 51.0959 179.154 50.3823L179.141 50.3864Z" fill="black"/>
<path d="M198.894 33.2729V26.3736C198.894 25.3746 199.227 24.5632 199.902 23.9393C200.573 23.3154 201.433 23.0015 202.486 23.0015C203.539 23.0015 204.399 23.3154 205.07 23.9393C205.741 24.5632 206.078 25.3746 206.078 26.3736V33.2729H210.814C211.686 33.2729 212.402 33.542 212.962 34.0762C213.526 34.6103 213.806 35.3076 213.806 36.1639C213.806 37.0202 213.526 37.7134 212.962 38.2475C212.398 38.7817 211.682 39.0508 210.814 39.0508H206.078V53.4895C206.078 54.9859 206.823 55.7158 208.308 55.6832H211.193C211.991 55.6832 212.625 55.9523 213.098 56.4865C213.571 57.0207 213.806 57.7179 213.806 58.5701C213.806 59.4998 213.571 60.2379 213.098 60.7883C212.625 61.3429 211.991 61.6161 211.193 61.6161H207.494C204.589 61.6854 202.441 61.1431 201.046 59.9851C199.647 58.827 198.931 56.984 198.898 54.4518V39.0508H195.849C194.652 39.0508 193.8 38.7491 193.29 38.1415C192.817 37.5706 192.582 36.9101 192.582 36.1639C192.582 35.7724 192.664 35.3728 192.829 34.961C192.994 34.5532 193.22 34.2229 193.508 33.9701C193.944 33.5053 194.722 33.2729 195.849 33.2729H198.898H198.894Z" fill="black"/>
<path d="M236.17 59.7976V58.5662C233.52 61.1351 230.439 62.4154 226.92 62.4154C224.164 62.4154 221.921 61.6121 220.201 60.0097C218.477 58.4072 217.617 56.3195 217.617 53.7506C217.617 52.3234 217.905 51.0064 218.489 49.7913C219.07 48.5802 219.831 47.6098 220.777 46.8758C221.72 46.1459 222.629 45.6036 223.497 45.2448C224.402 44.89 225.554 44.5964 226.953 44.364C228.348 44.1316 231.426 43.9644 236.178 43.8543V42.733C236.178 41.1998 235.718 40.0581 234.792 39.3119C233.866 38.5616 232.442 38.1906 230.521 38.1906C228.233 38.1906 226.274 38.5657 224.645 39.3119C223.448 39.8461 222.542 40.1152 221.925 40.1152C221.744 40.1152 221.489 40.0336 221.164 39.8746C220.839 39.7156 220.584 39.5443 220.403 39.3649C219.86 38.8674 219.588 38.1865 219.588 37.3343C219.588 36.1559 220.168 35.2139 221.329 34.5004C223.649 33.1466 226.789 32.4697 230.743 32.4697C234.697 32.4697 237.861 33.379 240.022 35.1976C242.182 37.0162 243.26 39.6177 243.26 43.0062V59.5326C243.26 60.3889 242.922 61.0821 242.252 61.6162C241.581 62.1504 240.717 62.4195 239.668 62.4195C238.618 62.4195 237.816 62.1708 237.166 61.6692C236.512 61.1718 236.187 60.5479 236.187 59.7976H236.17ZM236.17 48.833H235.788L235.681 48.886C231.578 48.9227 228.879 49.2082 227.571 49.7423C225.682 50.4192 224.74 51.5609 224.74 53.1634C224.74 54.2317 225.102 55.088 225.83 55.7323C226.554 56.3725 227.517 56.6946 228.714 56.6946C229.731 56.6946 230.809 56.5152 231.953 56.1604C233.097 55.8057 234.5 54.9127 236.17 53.4855V48.833Z" fill="black"/>
</g>
<defs>
<clipPath id="clip0_3788_36841">
<rect width="307" height="82" fill="white"/>
</clipPath>
</defs>
</svg>
