<?xml version="1.0" encoding="UTF-8"?>
<svg id="Layer_1" xmlns="http://www.w3.org/2000/svg" viewBox="0 0 56.7 64">
  <defs>
    <style>
      .cls-1 {
        fill: #3e6aab;
      }

      .cls-2 {
        fill: #719cd2;
      }

      .cls-3 {
        fill: #bfd2ec;
      }
    </style>
  </defs>
  <path class="cls-1" d="M2.4,14.2c-1.5.9-2.4,2.4-2.4,4.1v27.2c0,1,.3,1.9.8,2.7l27.5-15.9V0c-.8,0-1.7.2-2.4.6L2.4,14.2Z"/>
  <path class="cls-2" d="M55.9,48.3c.5-.8.8-1.7.8-2.7v-27.2c0-1.7-.9-3.3-2.4-4.1L30.8.6c-.7-.4-1.6-.6-2.4-.6v32.4l27.5,15.9Z"/>
  <path class="cls-3" d="M54.3,49.8c.6-.4,1.2-.9,1.6-1.5l-27.5-15.9L.8,48.3c.4.6.9,1.1,1.6,1.5l23.6,13.6c1.5.9,3.3.9,4.8,0l23.6-13.6Z"/>
</svg>