<?xml version="1.0" encoding="UTF-8"?>
<svg xmlns="http://www.w3.org/2000/svg" version="1.1" xmlns:xlink="http://www.w3.org/1999/xlink" viewBox="0 0 1537.77 1106.04">
  <defs>
    <style>
      .cls-1 {
        fill: url(#New_Gradient_Swatch_5);
      }
    </style>
    <linearGradient id="New_Gradient_Swatch_5" data-name="New Gradient Swatch 5" x1="205.64" y1="699.83" x2="432.53" y2="699.83" gradientUnits="userSpaceOnUse">
      <stop offset="0" stop-color="#4d96f0"/>
      <stop offset=".51" stop-color="#4788f0"/>
      <stop offset="1" stop-color="#477ff0"/>
    </linearGradient>
  </defs>
  <!-- Generator: Adobe Illustrator 28.6.0, SVG Export Plug-In . SVG Version: 1.2.0 Build 709)  -->
  <g>
    <g id="foreground">
      <path class="cls-1" d="M432.53,646.39c0-7.43-4-14.36-10.44-18.08l-92.57-53.44c-2.57-1.49-5.44-2.39-8.38-2.68v-.11h-4.11v.11c-2.95.29-5.81,1.2-8.38,2.68l-92.57,53.45c-6.44,3.72-10.44,10.65-10.44,18.08v106.89c0,3.41.84,6.72,2.41,9.71l-.11.06,1.21,1.81s0,0,0,0l1.07,1.6.09-.05c1.6,1.97,3.56,3.66,5.76,4.93l92.57,53.45c3.22,1.86,6.83,2.79,10.44,2.79s7.22-.93,10.44-2.79l92.57-53.45c2.2-1.27,4.16-2.96,5.76-4.93l.09.05,1.07-1.6s0,0,0,0l1.21-1.81-.11-.06c1.58-2.99,2.41-6.3,2.41-9.71v-106.89ZM209.75,753.28v-106.89c0-5.97,3.21-11.54,8.38-14.52l92.57-53.45c1.95-1.12,4.11-1.84,6.33-2.12v87.63c-.77.24-1.47.49-2.08.73-4.19,1.68-7.88,4.49-12.5,8.81v-40.06l-.06-.24c-1.05-4.3-5.65-12.43-15.51-12.43s-14.74,8.08-15.97,12.35l-.08.28v93.39l-59.22,34.19c-1.22-2.36-1.85-4.98-1.85-7.66ZM365.08,725.44l-23.89-13.8v-11.55c0-6.37-1.53-11.07-4.67-14.39-4.65-4.9-11.36-5.59-14.74-5.59-.23,0-.44,0-.64,0v-13.01c3.5-.7,8.3-1.09,14.72-.52,19.19,1.7,29.23,18.82,29.23,27.52v31.32ZM341.19,716.39l22.55,13.02,1.35.78v21.87c0,.1-.77,9.65-13.19,9.65-7.14,0-10.64-3.33-10.7-10.18v-35.14ZM274.92,751.19v-.11s.01-21.96.01-21.96l23.41-13.52v34.09c-.07.98-1.15,12.02-11.95,12.02-4.14,0-7.21-1.07-9.13-3.19-2.73-3.01-2.35-7.3-2.34-7.33ZM337.08,709.28l-15.94-9.2v-15.84c2.38-.09,8.45.13,12.4,4.3,2.38,2.52,3.54,6.3,3.54,11.56v9.18ZM317.03,700.07l-14.59,8.42v-8.41c2.8-7.56,8.31-13.17,14.59-15.12v15.11ZM317.03,680.7c-8.18,1.97-15.15,8.75-18.57,18.32l-.12.33v11.51l-23.41,13.52v-90.41c.52-1.53,3.55-9.13,11.95-9.13s11.05,7.67,11.46,9.08v49.3l3.5-3.46c6.91-6.83,10.6-9.68,14.64-11.3.18-.07.36-.14.55-.21v12.44ZM420.04,767.8l-92.57,53.45c-5.17,2.99-11.6,2.99-16.77,0l-92.57-53.45c-1.58-.91-3-2.08-4.21-3.45l56.9-32.85v19.38c-.07.92-.32,6.27,3.36,10.36,2.73,3.04,6.84,4.58,12.21,4.58,11.97,0,15.73-10.42,16.05-15.94v-36.65s16.64-9.61,16.64-9.61l18,10.39v37.53c.08,9.07,5.48,14.26,14.81,14.26,7.64,0,11.85-3.11,14.03-5.72,2.58-3.09,3.27-6.51,3.27-8.04v-19.5l55.06,31.79c-1.21,1.37-2.63,2.54-4.21,3.45ZM369.19,727.81v-33.69c0-10.3-11.02-29.68-32.97-31.62-6.37-.56-11.31-.23-15.08.44v-86.65c2.22.28,4.38.99,6.33,2.12l92.57,53.45c5.17,2.99,8.38,8.55,8.38,14.52v106.89c0,2.68-.64,5.3-1.85,7.66l-57.38-33.13Z"/>
    </g>
  </g>
</svg>