<?xml version="1.0" encoding="utf-8"?>
<!-- Generator: Adobe Illustrator 28.7.1, SVG Export Plug-In . SVG Version: 9.03 Build 54978)  -->
<svg version="1.0" id="Layer_1" xmlns="http://www.w3.org/2000/svg" xmlns:xlink="http://www.w3.org/1999/xlink" x="0px" y="0px"
	 viewBox="0 0 64 64" style="enable-background:new 0 0 64 64;" xml:space="preserve">
<path d="M53.4,58.68c0-12.03,0-16.66,0-26.3c0-4.33-4.82-12.6-14.12-13.42c-4.69-0.41-7.59,0.26-9.23,0.91
	c-2.09,0.84-3.97,2.38-6.96,5.33V4.93c0,0-1.21-4.93-6.14-4.93s-6.36,4.93-6.36,4.93v53.26c0,0-0.62,5.81,6.14,5.81
	c5.99,0,6.36-6.36,6.36-6.36c0-7.57,0-15.15,0-22.72C24.67,30.53,28.1,27.4,32,27c0.48-0.05,4.38-0.37,6.83,2.21
	c1.25,1.32,1.86,3.25,1.86,5.89v23.35c0.02,1.91,0.6,5.55,5.79,5.55C52.33,64,53.4,59.73,53.4,58.68z"/>
</svg>
